<svg width="20" height="20" viewBox="0 0 20 20" fill="none" xmlns="http://www.w3.org/2000/svg">
<circle cx="10" cy="10" r="10" fill="#FF7F00"/>
<path d="M8.72755 5.19995H11.3315L10.8975 11.598H9.16155L8.72755 5.19995ZM10.0295 15.112C9.64688 15.112 9.32488 14.9906 9.06355 14.748C8.81155 14.496 8.68555 14.1926 8.68555 13.838C8.68555 13.4833 8.81155 13.1893 9.06355 12.956C9.31555 12.7133 9.63755 12.592 10.0295 12.592C10.4215 12.592 10.7435 12.7133 10.9955 12.956C11.2475 13.1893 11.3735 13.4833 11.3735 13.838C11.3735 14.1926 11.2429 14.496 10.9815 14.748C10.7295 14.9906 10.4122 15.112 10.0295 15.112Z" fill="white"/>
</svg>
