<svg width="36" height="36" viewBox="0 0 36 36" fill="none" xmlns="http://www.w3.org/2000/svg">
<circle cx="18" cy="18" r="18" fill="#FFF6EE"/>
<path fill-rule="evenodd" clip-rule="evenodd" d="M9.09668 11.9967C9.09668 11.4996 9.49962 11.0967 9.99668 11.0967H11.5801C11.986 11.0967 12.3416 11.3683 12.4484 11.7599L12.9273 13.5159L24.3066 14.2655C24.7797 14.2966 25.1474 14.6894 25.1474 15.1635V19.9138C25.1474 20.3841 24.7854 20.7751 24.3165 20.8111L14.0243 21.6028C13.5938 21.6359 13.2005 21.3588 13.0869 20.9423L11.3596 14.6086L10.8927 12.8967H9.99668C9.49962 12.8967 9.09668 12.4937 9.09668 11.9967ZM15.6206 15.7372C15.5001 15.255 15.0114 14.9618 14.5292 15.0824C14.047 15.2029 13.7538 15.6916 13.8743 16.1738L14.6661 19.3406C14.7866 19.8229 15.2753 20.116 15.7575 19.9955C16.2397 19.8749 16.5329 19.3863 16.4123 18.9041L15.6206 15.7372ZM18.1823 15.2622C18.6744 15.1919 19.1303 15.5338 19.2006 16.0259L19.5964 18.7969C19.6667 19.2889 19.3248 19.7448 18.8328 19.8151C18.3407 19.8854 17.8848 19.5435 17.8145 19.0514L17.4187 16.2804C17.3484 15.7884 17.6903 15.3325 18.1823 15.2622ZM22.7727 16.3513C22.7727 15.8542 22.3698 15.4513 21.8727 15.4513C21.3757 15.4513 20.9727 15.8542 20.9727 16.3513V18.7264C20.9727 19.2234 21.3757 19.6264 21.8727 19.6264C22.3698 19.6264 22.7727 19.2234 22.7727 18.7264V16.3513Z" fill="#FF7F00"/>
<circle cx="15.5385" cy="23.8725" r="1.58342" fill="#FF7F00"/>
<circle cx="21.8725" cy="23.8725" r="1.58342" fill="#FF7F00"/>
</svg>
