<svg width="22" height="20" viewBox="0 0 22 20" fill="none" xmlns="http://www.w3.org/2000/svg">
<path fill-rule="evenodd" clip-rule="evenodd" d="M0.333984 1.25352C0.333984 0.756459 0.736928 0.353516 1.23398 0.353516H3.4043C3.81151 0.353516 4.16798 0.626935 4.27354 1.02023L4.99454 3.70668L20.8269 4.76641C21.2996 4.79804 21.6668 5.19067 21.6668 5.6644V12.2807C21.6668 12.7506 21.3054 13.1414 20.8369 13.178L6.72991 14.2807C6.29774 14.3145 5.90289 14.0354 5.79053 13.6167L3.42291 4.79497L2.71399 2.15352H1.23398C0.736928 2.15352 0.333984 1.75057 0.333984 1.25352ZM8.61961 6.55252C8.50086 6.06986 8.01333 5.77484 7.53066 5.89358C7.048 6.01233 6.75298 6.49987 6.87173 6.98253L7.95688 11.3934C8.07563 11.8761 8.56317 12.1711 9.04583 12.0523C9.52849 11.9336 9.82351 11.4461 9.70477 10.9634L8.61961 6.55252ZM12.5028 6.15156C12.9951 6.08236 13.4502 6.42529 13.5194 6.9175L14.0619 10.777C14.1311 11.2692 13.7882 11.7244 13.296 11.7936C12.8038 11.8627 12.3487 11.5198 12.2795 11.0276L11.7369 7.16809C11.6677 6.67587 12.0106 6.22076 12.5028 6.15156ZM18.4119 7.31873C18.4119 6.82167 18.009 6.41873 17.5119 6.41873C17.0148 6.41873 16.6119 6.82167 16.6119 7.31873V10.6269C16.6119 11.1239 17.0148 11.5269 17.5119 11.5269C18.009 11.5269 18.4119 11.1239 18.4119 10.6269V7.31873Z" fill="white"/>
<ellipse cx="8.83047" cy="17.7946" rx="2.17031" ry="2.20544" fill="white"/>
<ellipse cx="17.5111" cy="17.7946" rx="2.17032" ry="2.20544" fill="white"/>
</svg>
