<svg width="32" height="32" viewBox="0 0 32 32" fill="none" xmlns="http://www.w3.org/2000/svg">
<rect width="32" height="32" rx="6" fill="#FF7F00"/>
<path d="M6 8C6 6.89543 6.89543 6 8 6H18C18.5523 6 19 6.44772 19 7V14C19 14.5523 18.5523 15 18 15H7C6.44772 15 6 14.5523 6 14V8Z" fill="white"/>
<path d="M21 7C21 6.44772 21.4477 6 22 6H24C25.1046 6 26 6.89543 26 8V14C26 14.5523 25.5523 15 25 15H22C21.4477 15 21 14.5523 21 14V7Z" fill="white"/>
<path d="M26 24C26 25.1046 25.1046 26 24 26L14 26C13.4477 26 13 25.5523 13 25L13 18C13 17.4477 13.4477 17 14 17L25 17C25.5523 17 26 17.4477 26 18L26 24Z" fill="white"/>
<path d="M11 25C11 25.5523 10.5523 26 10 26L8 26C6.89543 26 6 25.1046 6 24L6 18C6 17.4477 6.44772 17 7 17L10 17C10.5523 17 11 17.4477 11 18L11 25Z" fill="white"/>
</svg>
