<svg width="32" height="32" viewBox="0 0 32 32" fill="none" xmlns="http://www.w3.org/2000/svg">
<rect width="32" height="32" rx="6" fill="#F1F1F1"/>
<path d="M26 24C26 25.1046 25.1046 26 24 26L18 26C17.4477 26 17 25.5523 17 25L17 18C17 17.4477 17.4477 17 18 17L25 17C25.5523 17 26 17.4477 26 18L26 24Z" fill="#C4C4C4"/>
<path d="M6 8C6 6.89543 6.89543 6 8 6L14 6C14.5523 6 15 6.44772 15 7L15 14C15 14.5523 14.5523 15 14 15L7 15C6.44771 15 6 14.5523 6 14L6 8Z" fill="#C4C4C4"/>
<path d="M6 24C6 25.1046 6.89543 26 8 26L14 26C14.5523 26 15 25.5523 15 25L15 18C15 17.4477 14.5523 17 14 17L7 17C6.44772 17 6 17.4477 6 18L6 24Z" fill="#C4C4C4"/>
<path d="M26 8C26 6.89543 25.1046 6 24 6L18 6C17.4477 6 17 6.44771 17 7L17 14C17 14.5523 17.4477 15 18 15L25 15C25.5523 15 26 14.5523 26 14L26 8Z" fill="#C4C4C4"/>
</svg>
