<svg width="8" height="8" viewBox="0 0 8 8" fill="none" xmlns="http://www.w3.org/2000/svg">
<path fill-rule="evenodd" clip-rule="evenodd" d="M6.90237 1.56904C7.03254 1.43886 7.03254 1.22781 6.90237 1.09763C6.77219 0.967457 6.56114 0.967457 6.43096 1.09763L4 3.5286L1.56904 1.09763C1.43886 0.967456 1.22781 0.967456 1.09763 1.09763C0.967456 1.22781 0.967456 1.43886 1.09763 1.56904L3.5286 4L1.09763 6.43096C0.967456 6.56114 0.967456 6.77219 1.09763 6.90237C1.22781 7.03254 1.43886 7.03254 1.56904 6.90237L4 4.47141L6.43096 6.90237C6.56114 7.03254 6.77219 7.03254 6.90237 6.90237C7.03254 6.77219 7.03254 6.56114 6.90237 6.43096L4.47141 4L6.90237 1.56904Z" fill="white" stroke="white" stroke-width="0.5" stroke-linecap="round" stroke-linejoin="round"/>
</svg>
