<svg width="4" height="4" viewBox="0 0 4 4" fill="none" xmlns="http://www.w3.org/2000/svg">
<path fill-rule="evenodd" clip-rule="evenodd" d="M3.93491 0.379357C4.0217 0.292574 4.0217 0.151871 3.93491 0.0650875C3.84813 -0.0216956 3.70743 -0.0216956 3.62064 0.0650875L2 1.68573L0.379357 0.0650874C0.292574 -0.0216958 0.151871 -0.0216958 0.0650873 0.0650874C-0.0216958 0.151871 -0.0216958 0.292574 0.0650873 0.379357L1.68573 2L0.0650875 3.62064C-0.0216957 3.70743 -0.0216957 3.84813 0.0650875 3.93491C0.151871 4.0217 0.292574 4.0217 0.379357 3.93491L2 2.31427L3.62064 3.93491C3.70743 4.0217 3.84813 4.0217 3.93491 3.93491C4.0217 3.84813 4.0217 3.70743 3.93491 3.62064L2.31427 2L3.93491 0.379357Z" fill="#C4C4C4"/>
</svg>
