<svg width="18" height="18" viewBox="0 0 18 18" fill="none" xmlns="http://www.w3.org/2000/svg">
<g clip-path="url(#clip0_1:506)">
<path d="M9.87116 4.76231C9.87116 6.04353 9.876 7.32476 9.86632 8.60598C9.86632 8.76069 9.90505 8.84289 10.0551 8.91541C10.9847 9.37471 11.493 10.1386 11.493 11.1733C11.493 12.1982 10.9798 12.9476 10.06 13.4069C9.91473 13.4795 9.86632 13.5617 9.86632 13.7164C9.87116 14.8429 9.87116 15.9742 9.86632 17.1007C9.86632 17.502 9.64362 17.8115 9.2902 17.942C8.94647 18.0677 8.54948 17.9807 8.33646 17.6664C8.21543 17.4924 8.13797 17.2555 8.13313 17.0427C8.11376 15.9549 8.1186 14.8671 8.12829 13.7792C8.12829 13.5762 8.07503 13.4746 7.88622 13.3779C6.9809 12.9138 6.49192 12.1547 6.50161 11.1394C6.51129 10.1289 7.00994 9.37472 7.92495 8.92508C8.0944 8.84289 8.12829 8.74619 8.12829 8.57697C8.12345 6.02903 8.12345 3.48108 8.12345 0.933135C8.12345 0.401306 8.45265 0.0241908 8.93679 -0.00481806C9.45481 -0.0338269 9.86632 0.352958 9.86632 0.884787C9.876 2.18535 9.87116 3.47141 9.87116 4.76231Z" fill="white"/>
<path d="M14.6349 13.4891C14.6349 12.319 14.6301 11.149 14.6398 9.98382C14.6398 9.79527 14.5962 9.6889 14.4122 9.5922C13.4972 9.12323 13.0083 8.36416 13.0228 7.33435C13.0325 6.3142 13.5456 5.57931 14.451 5.12484C14.5962 5.05232 14.6446 4.97013 14.6398 4.81058C14.6349 3.51968 14.6349 2.22879 14.6398 0.942728C14.6446 0.357716 15.0319 -0.0290685 15.5693 -5.96439e-05C15.976 0.0241144 16.3245 0.338377 16.3681 0.744501C16.3923 0.952398 16.3875 1.16513 16.3875 1.37303C16.3875 2.51888 16.3875 3.66473 16.3826 4.80574C16.3826 4.97496 16.4359 5.05715 16.5908 5.13451C17.4913 5.58415 17.9899 6.32387 18.0045 7.32951C18.0238 8.33515 17.5542 9.09422 16.6634 9.56803C16.4407 9.6889 16.3826 9.81461 16.3826 10.0467C16.3923 12.3771 16.3875 14.7074 16.3875 17.0378C16.3875 17.6373 15.9953 18.0289 15.4483 17.9951C15.0561 17.9709 14.7318 17.676 14.664 17.2892C14.6446 17.1732 14.6398 17.0475 14.6398 16.9266C14.6349 15.7808 14.6349 14.6349 14.6349 13.4891Z" fill="white"/>
<path d="M1.61665 13.4987C1.61665 12.3142 1.6118 11.1297 1.62149 9.94514C1.62149 9.78076 1.57792 9.69373 1.42299 9.61154C0.498303 9.14256 -0.0100351 8.39317 -0.00035246 7.34885C0.00933017 6.31903 0.522509 5.57447 1.44236 5.12484C1.59728 5.04748 1.62149 4.95078 1.62149 4.80574C1.61665 3.51484 1.61665 2.22395 1.62149 0.937889C1.62149 0.372216 1.99427 -0.0097343 2.50745 -6.46804e-05C2.93348 0.00960494 3.28206 0.309363 3.34015 0.729992C3.35952 0.850862 3.35952 0.971732 3.35952 1.0926C3.35952 2.32548 3.36436 3.55836 3.35952 4.79123C3.35952 4.97012 3.41277 5.05231 3.57738 5.13934C4.47302 5.60832 4.97652 6.34804 4.98136 7.36819C4.9862 8.37866 4.49723 9.11839 3.61127 9.58737C3.4273 9.68406 3.36436 9.78076 3.36436 9.98865C3.3692 12.2949 3.3692 14.6011 3.36436 16.9024C3.36436 17.062 3.35952 17.2264 3.32079 17.3811C3.21912 17.7679 2.82213 18.0241 2.41062 17.9854C2.01848 17.9516 1.6699 17.6373 1.64085 17.2409C1.6118 16.8734 1.62149 16.5011 1.62149 16.1289C1.61665 15.2538 1.61665 14.3787 1.61665 13.4987Z" fill="white"/>
</g>
<defs>
<clipPath id="clip0_1:506">
<rect width="18" height="18" fill="white"/>
</clipPath>
</defs>
</svg>
