<svg width="15" height="15" viewBox="0 0 15 15" fill="none" xmlns="http://www.w3.org/2000/svg">
<g clip-path="url(#clip0_1:357)">
<path d="M0.466797 10.1087C1.52649 12.9647 4.27557 15 7.5003 15C10.725 15 13.4741 12.9647 14.5338 10.1087L7.5003 9.45654L0.466797 10.1087Z" fill="#FFDA44"/>
<path d="M7.5003 0C4.27557 0 1.52649 2.03531 0.466797 4.89132L7.5003 5.54347L14.5338 4.89129C13.4741 2.03531 10.725 0 7.5003 0Z" fill="black"/>
<path d="M0.466494 4.89124C0.165029 5.70373 0 6.58251 0 7.49992C0 8.41732 0.165029 9.29611 0.466494 10.1086H14.5335C14.835 9.29611 15 8.41732 15 7.49992C15 6.58251 14.835 5.70373 14.5335 4.89124H0.466494Z" fill="#D80027"/>
</g>
<defs>
<clipPath id="clip0_1:357">
<rect width="15" height="15" fill="white"/>
</clipPath>
</defs>
</svg>
