<svg width="15" height="15" viewBox="0 0 15 15" fill="none" xmlns="http://www.w3.org/2000/svg">
<g clip-path="url(#clip0_1:363)">
<path d="M7.5 15C11.6421 15 15 11.6421 15 7.5C15 3.35786 11.6421 0 7.5 0C3.35786 0 0 3.35786 0 7.5C0 11.6421 3.35786 15 7.5 15Z" fill="#F0F0F0"/>
<path d="M7.5003 0C4.27557 0 1.52649 2.03531 0.466797 4.89132H14.5338C13.4741 2.03531 10.725 0 7.5003 0Z" fill="#A2001D"/>
<path d="M7.5003 15.0001C10.725 15.0001 13.4741 12.9648 14.5338 10.1088H0.466797C1.52649 12.9648 4.27557 15.0001 7.5003 15.0001Z" fill="#0052B4"/>
</g>
<defs>
<clipPath id="clip0_1:363">
<rect width="15" height="15" fill="white"/>
</clipPath>
</defs>
</svg>
