<svg width="15" height="15" viewBox="0 0 15 15" fill="none" xmlns="http://www.w3.org/2000/svg">
<path d="M7.5 15C11.6421 15 15 11.6421 15 7.5C15 3.35786 11.6421 0 7.5 0C3.35786 0 0 3.35786 0 7.5C0 11.6421 3.35786 15 7.5 15Z" fill="#F0F0F0"/>
<path d="M5.86917 6.52175H14.9361C14.4567 2.84186 11.3101 0 7.49957 0C6.93956 0 6.39414 0.0619043 5.86914 0.178272V6.52175H5.86917Z" fill="#D80027"/>
<path d="M3.91303 6.52178V0.911987C1.85366 2.03564 0.379385 4.0967 0.0634766 6.52181H3.91303V6.52178Z" fill="#D80027"/>
<path d="M3.913 8.47827H0.0634766C0.379385 10.9034 1.85366 12.9644 3.91303 14.0881L3.913 8.47827Z" fill="#D80027"/>
<path d="M5.86914 8.4783V14.8218C6.39414 14.9381 6.93956 15 7.49957 15C11.3101 15 14.4567 12.1582 14.9361 8.47827H5.86914V8.4783Z" fill="#D80027"/>
</svg>
