<svg width="18" height="18" viewBox="0 0 18 18" fill="none" xmlns="http://www.w3.org/2000/svg">
<circle cx="9" cy="9" r="9" fill="#EFF5FF"/>
<circle cx="9" cy="9" r="9" stroke="#6691FF"/>
<path d="M7.99363 10.8212C7.99363 10.1671 8.06369 9.65188 8.20382 9.27554C8.34395 8.89471 8.57113 8.56541 8.88535 8.28763C9.19958 8.00986 9.43737 7.75672 9.59873 7.52823C9.76433 7.29525 9.84713 7.03987 9.84713 6.7621C9.84713 6.08557 9.57113 5.74731 9.01911 5.74731C8.76433 5.74731 8.55839 5.84588 8.40127 6.04301C8.24416 6.24014 8.16136 6.50672 8.15287 6.84274H6C6.00849 5.94668 6.27601 5.25 6.80255 4.75269C7.32909 4.2509 8.06794 4 9.01911 4C9.96603 4 10.6985 4.23073 11.2166 4.6922C11.7389 5.15367 12 5.81004 12 6.66129C12 7.03315 11.9299 7.37142 11.7898 7.67608C11.6497 7.98073 11.4246 8.29211 11.1146 8.61022L10.3822 9.3293C10.1741 9.53987 10.0297 9.75717 9.94904 9.98118C9.86837 10.2007 9.82378 10.4807 9.81529 10.8212H7.99363ZM7.73248 12.8642C7.73248 12.5327 7.84501 12.2616 8.07006 12.0511C8.29936 11.836 8.58386 11.7285 8.92357 11.7285C9.26327 11.7285 9.54565 11.836 9.7707 12.0511C10 12.2616 10.1146 12.5327 10.1146 12.8642C10.1146 13.1958 10 13.4691 9.7707 13.6841C9.54565 13.8947 9.26327 14 8.92357 14C8.58386 14 8.29936 13.8947 8.07006 13.6841C7.84501 13.4691 7.73248 13.1958 7.73248 12.8642Z" fill="#6691FF"/>
</svg>
