<svg width="14" height="14" viewBox="0 0 14 14" fill="none" xmlns="http://www.w3.org/2000/svg">
<path d="M12.5075 8.41957C12.5075 8.4724 12.5075 8.57806 12.5075 8.68372C12.5075 9.89882 12.5075 11.0963 12.5075 12.3114C12.5075 13.4032 11.8935 14.002 10.8058 14.002C10.1567 14.002 9.50753 14.002 8.85841 14.002C8.48999 14.002 8.34964 13.8611 8.34964 13.4913C8.34964 12.4875 8.34964 11.5013 8.34964 10.4976C8.34964 9.89882 8.10402 9.65228 7.50753 9.65228C7.15665 9.65228 6.78823 9.65228 6.43736 9.65228C5.91104 9.65228 5.64788 9.91643 5.64788 10.4447C5.64788 11.4133 5.64788 12.3642 5.64788 13.3328C5.64788 13.9139 5.56016 14.002 4.96367 14.002C4.34964 14.002 3.71806 14.002 3.10402 14.002C2.12157 14.002 1.50753 13.368 1.48999 12.3818C1.48999 11.1491 1.48999 9.91643 1.48999 8.68372C1.48999 8.57806 1.48999 8.4724 1.48999 8.34913C1.34964 8.33152 1.22683 8.33152 1.10402 8.31391C0.612795 8.22586 0.279462 7.96171 0.104023 7.48624C-0.0889593 7.02838 -0.00124 6.60574 0.297006 6.21831C0.349637 6.14787 0.437356 6.07743 0.507532 6.00699C2.31455 4.17555 4.13911 2.3441 5.96367 0.512653C6.64788 -0.17414 7.34964 -0.17414 8.03385 0.512653C9.87595 2.36171 11.7181 4.21077 13.5602 6.05982C14.1917 6.69379 14.1567 7.62712 13.4549 8.08498C13.1917 8.24347 12.876 8.2963 12.5075 8.41957Z" fill="#8C8C8C"/>
</svg>
