<svg width="40" height="40" viewBox="0 0 40 40" fill="none" xmlns="http://www.w3.org/2000/svg">
<circle cx="20" cy="20" r="20" fill="white"/>
<path fill-rule="evenodd" clip-rule="evenodd" d="M11.0532 12.9402C11.0532 12.4431 11.4562 12.0402 11.9532 12.0402H13.6303C14.035 12.0402 14.3899 12.3103 14.4977 12.7003L15.0133 14.5647L27.1051 15.3502C27.5785 15.381 27.9468 15.7739 27.9468 16.2483V21.2106C27.9468 21.6812 27.5842 22.0724 27.1149 22.108L16.214 22.935C15.785 22.9676 15.3931 22.6921 15.2784 22.2775L13.4489 15.6611L12.9454 13.8402H11.9532C11.4562 13.8402 11.0532 13.4372 11.0532 12.9402ZM17.8574 16.8545C17.7353 16.3727 17.2457 16.0811 16.7638 16.2033C16.282 16.3254 15.9904 16.815 16.1126 17.2968L16.9511 20.605C17.0732 21.0868 17.5628 21.3784 18.0446 21.2562C18.5265 21.1341 18.818 20.6445 18.6959 20.1627L17.8574 16.8545ZM20.6288 16.3914C21.1207 16.3202 21.5772 16.6612 21.6485 17.1531L22.0678 20.0477C22.139 20.5397 21.798 20.9962 21.3061 21.0675C20.8141 21.1387 20.3576 20.7977 20.2864 20.3058L19.8671 17.4111C19.7958 16.9192 20.1369 16.4627 20.6288 16.3914ZM25.4316 17.4891C25.4316 16.992 25.0287 16.5891 24.5316 16.5891C24.0346 16.5891 23.6316 16.992 23.6316 17.4891V19.9702C23.6316 20.4672 24.0346 20.8702 24.5316 20.8702C25.0287 20.8702 25.4316 20.4672 25.4316 19.9702V17.4891Z" fill="#FF7F00"/>
<ellipse cx="17.8231" cy="25.346" rx="1.67706" ry="1.65408" fill="#FF7F00"/>
<ellipse cx="24.5311" cy="25.346" rx="1.67706" ry="1.65408" fill="#FF7F00"/>
</svg>
