<svg width="40" height="40" viewBox="0 0 40 40" fill="none" xmlns="http://www.w3.org/2000/svg">
<circle opacity="0.9" cx="20" cy="20" r="20" fill="white"/>
<path fill-rule="evenodd" clip-rule="evenodd" d="M13.8078 14.092C14.1151 12.8625 15.2198 12 16.4872 12H23.5128C24.7802 12 25.8849 12.8625 26.1922 14.092L27.9175 20.9932C27.9723 21.2123 28 21.4372 28 21.6631V24.5238C28 26.0492 26.7635 27.2857 25.2381 27.2857H14.7619C13.2365 27.2857 12 26.0492 12 24.5238V21.6631C12 21.4372 12.0277 21.2123 12.0825 20.9932L13.8078 14.092ZM16.4872 13.7143C16.0065 13.7143 15.5874 14.0415 15.4709 14.5078L13.7456 21.409C13.7248 21.4921 13.7143 21.5774 13.7143 21.6631V24.5238C13.7143 25.1024 14.1833 25.5714 14.7619 25.5714H25.2381C25.8167 25.5714 26.2857 25.1024 26.2857 24.5238V21.6631C26.2857 21.5774 26.2752 21.4921 26.2544 21.409L24.5291 14.5078C24.4126 14.0415 23.9935 13.7143 23.5128 13.7143H16.4872Z" fill="#FF7F00"/>
<path d="M12.8569 21.4286H16.1233C16.7601 21.4286 17.3548 21.7469 17.7081 22.2768L18.0058 22.7233C18.359 23.2532 18.9538 23.5714 19.5906 23.5714H20.409C21.0458 23.5714 21.6406 23.2532 21.9938 22.7233L22.2915 22.2768C22.6447 21.7469 23.2395 21.4286 23.8763 21.4286H27.1426V24.5238C27.1426 25.5758 26.2899 26.4286 25.2379 26.4286H14.7617C13.7097 26.4286 12.8569 25.5758 12.8569 24.5238V21.4286Z" fill="#FF7F00"/>
</svg>
