<svg width="18" height="17" viewBox="0 0 18 17" fill="none" xmlns="http://www.w3.org/2000/svg">
<path d="M3.37127 2.76493C3.59385 1.8746 4.39382 1.25 5.31155 1.25H12.6884C13.6062 1.25 14.4061 1.87459 14.6287 2.76493L16.4403 10.0111C16.4799 10.1698 16.5 10.3327 16.5 10.4962V13.5C16.5 14.6046 15.6046 15.5 14.5 15.5H3.5C2.39543 15.5 1.5 14.6046 1.5 13.5V10.4962C1.5 10.3327 1.52005 10.1698 1.55971 10.0111L3.37127 2.76493Z" stroke="#FF7F00" stroke-width="1.8"/>
<path d="M1.5 10.25H4.92963C5.59834 10.25 6.2228 10.5842 6.59373 11.1406L6.90627 11.6094C7.2772 12.1658 7.90166 12.5 8.57037 12.5H9.42963C10.0983 12.5 10.7228 12.1658 11.0937 11.6094L11.4063 11.1406C11.7772 10.5842 12.4017 10.25 13.0704 10.25H16.5V13.5C16.5 14.6046 15.6046 15.5 14.5 15.5H3.5C2.39543 15.5 1.5 14.6046 1.5 13.5V10.25Z" fill="#FF7F00"/>
</svg>
