<svg width="158" height="26" viewBox="0 0 158 26" fill="none" xmlns="http://www.w3.org/2000/svg">
<path d="M8.03543 5.37927L4.06286 11.8344L0 5.9172V5.37927H8.03543Z" fill="#FF0000"/>
<path d="M6.13965 9.50347L8.84822 5.28967H13.7236V9.50347H6.13965Z" fill="#FF7F00"/>
<path d="M0 14.4345V7.26208L4.87543 14.4345H0Z" fill="#FF1A00"/>
<path d="M13.8136 19.0069H6.41016L9.84101 13.2689L13.8136 18.2V19.0069Z" fill="#FF4D00"/>
<path d="M7.85486 15.2413H0V19.0069H5.41714L7.85486 15.2413Z" fill="#FF3400"/>
<path d="M13.7239 10.3103H8.4873L13.8142 17.1241V10.3103H13.7239Z" fill="#FF6600"/>
<path d="M15.9805 3.94483V0H21.0365V3.94483H15.9805ZM15.9805 19.0965V5.28965H21.0365V19.0965H15.9805Z" fill="#FF0000"/>
<path d="M23.7451 19.0965V5.28965H28.3497V7.35172C28.8011 6.54482 29.3428 5.91724 30.0651 5.55862C30.6971 5.11034 31.5097 4.93103 32.5028 4.93103C33.4057 4.93103 34.128 5.11034 34.76 5.55862C35.392 6.00689 35.8434 6.54482 36.2948 7.35172C36.8365 6.54482 37.3783 5.91724 38.1005 5.55862C38.8228 5.2 39.6354 4.93103 40.5383 4.93103C41.9828 4.93103 43.1565 5.37931 43.8788 6.27586C44.6914 7.17241 45.0525 8.42758 45.0525 10.0414V19.0965H39.9965V11.2069C39.9965 10.4897 39.9063 9.95172 39.6354 9.68275C39.3645 9.41379 39.0034 9.23448 38.4617 9.23448C38.0103 9.23448 37.5588 9.41379 37.288 9.77241C37.0171 10.131 36.8365 10.5793 36.8365 11.2069V19.0965H31.8708V11.2965C31.8708 10.5793 31.7805 10.131 31.5097 9.77241C31.2388 9.41379 30.8777 9.23448 30.4263 9.23448C29.8845 9.23448 29.4331 9.41379 29.2525 9.77241C28.9817 10.131 28.8914 10.669 28.8914 11.4759V19.1862H23.7451V19.0965Z" fill="#FF0000"/>
<path d="M47.3997 10.1311C47.49 8.33798 48.0317 7.08281 49.2054 6.18626C50.2888 5.28971 51.914 4.84143 54.0808 4.84143C54.9837 4.84143 55.8865 4.93109 56.6088 5.02074C57.3311 5.20005 57.9631 5.37936 58.5048 5.64833C59.4077 6.0966 60.13 6.72419 60.4911 7.44143C60.8522 8.15867 61.0328 9.23453 61.0328 10.5794V17.8414C61.0328 18.0207 61.1231 18.2001 61.2134 18.3794C61.3037 18.5587 61.4842 18.6483 61.6648 18.738V19.0966H56.338L56.1574 17.5725C55.6157 18.2897 54.9837 18.738 54.3517 19.0966C53.7197 19.3656 52.8168 19.5449 51.7334 19.5449C50.1985 19.5449 49.0248 19.1863 48.2122 18.3794C47.3094 17.6621 46.9482 16.5863 46.9482 15.3311C46.9482 14.0759 47.3094 13.0897 48.122 12.3725C48.9345 11.6552 50.2888 11.2069 52.1848 10.8483C52.4557 10.7587 52.8168 10.7587 53.2682 10.669C55.074 10.4001 55.9768 9.95178 55.9768 9.41384C55.9768 9.05522 55.7962 8.78626 55.5254 8.60695C55.2545 8.42764 54.8031 8.33798 54.2614 8.33798C53.6294 8.33798 53.178 8.51729 52.8168 8.78626C52.546 9.05522 52.2751 9.5035 52.2751 10.1311H47.3997ZM56.0671 12.8207C55.706 13.0897 55.1642 13.3587 54.3517 13.538C54.2614 13.538 54.2614 13.538 54.1711 13.538C53.178 13.8069 52.546 13.9863 52.2751 14.1656C52.0042 14.3449 51.8237 14.6138 51.8237 14.9725C51.8237 15.3311 52.0042 15.6001 52.2751 15.7794C52.6362 15.9587 52.9974 16.138 53.5391 16.138C54.3517 16.138 54.9837 15.869 55.4351 15.4207C55.8865 14.9725 56.0671 14.2552 56.0671 13.3587C56.0671 13.1794 56.0671 13.0897 56.0671 13.0001C56.0671 13.0001 56.0671 12.9104 56.0671 12.8207Z" fill="#FF0000"/>
<path d="M68.075 11.5655C68.075 12.5517 68.2556 13.269 68.6167 13.7172C68.9779 14.1655 69.5196 14.4345 70.2419 14.4345C70.9641 14.4345 71.5059 14.1655 71.867 13.7172C72.2281 13.269 72.4087 12.5517 72.4087 11.5655C72.4087 10.5793 72.2281 9.86207 71.867 9.41379C71.5059 8.96551 70.9641 8.69655 70.2419 8.69655C69.5196 8.69655 68.9779 8.96551 68.6167 9.41379C68.2556 9.86207 68.075 10.5793 68.075 11.5655ZM72.2281 16.7655C71.6864 17.3034 71.1447 17.6621 70.5127 17.931C69.971 18.2 69.2487 18.2897 68.5264 18.2897C66.811 18.2897 65.4567 17.6621 64.4636 16.4965C63.4704 15.331 62.9287 13.6276 62.9287 11.5655C62.9287 9.50344 63.4704 7.88965 64.4636 6.72413C65.4567 5.55862 66.811 4.93103 68.5264 4.93103C69.339 4.93103 70.1516 5.11034 70.6933 5.37931C71.3253 5.64827 71.867 6.09655 72.3184 6.81379V5.28965H77.1939V17.2138C77.1939 19.3655 76.5619 20.9793 75.3881 22.1448C74.2144 23.2207 72.4087 23.7586 69.971 23.7586C67.9847 23.7586 66.4499 23.4 65.3664 22.6828C64.283 21.9655 63.651 20.8 63.4704 19.3655H68.4361C68.5264 19.7241 68.6167 19.9931 68.8876 20.1724C69.1584 20.3517 69.5196 20.4414 69.971 20.4414C70.6933 20.4414 71.235 20.1724 71.5961 19.6345C71.9573 19.0965 72.1379 18.3793 72.1379 17.3034C72.1379 17.2138 72.1379 17.2138 72.1379 17.0345C72.2281 16.8552 72.2281 16.7655 72.2281 16.7655Z" fill="#FF0000"/>
<path d="M93.6259 14.8828C93.2648 16.3173 92.5425 17.4828 91.2785 18.2897C90.0145 19.0966 88.4797 19.5449 86.6739 19.5449C84.4168 19.5449 82.6111 18.9173 81.2568 17.5725C79.9025 16.2276 79.2705 14.4345 79.2705 12.1932C79.2705 10.0414 79.9025 8.33799 81.2568 6.99317C82.6111 5.64834 84.3265 5.02075 86.4934 5.02075C88.7505 5.02075 90.5562 5.73799 91.9105 7.17248C93.1745 8.60696 93.8968 10.669 93.8968 13.269V13.4483H84.1459C84.2362 14.2552 84.5071 14.7932 85.0488 15.2414C85.5002 15.6897 86.0419 15.869 86.7642 15.869C87.2157 15.869 87.5768 15.7794 87.9379 15.6001C88.2991 15.4208 88.4796 15.1518 88.6602 14.7932H93.6259V14.8828ZM84.3265 10.5794H89.0214C88.9311 9.95179 88.6602 9.41386 88.2088 9.05523C87.7574 8.69661 87.3059 8.5173 86.5837 8.5173C86.0419 8.5173 85.5002 8.69661 85.1391 9.05523C84.6877 9.41386 84.4168 9.86213 84.3265 10.5794Z" fill="#FF0000"/>
<path d="M95.1611 14.2552C95.2514 17.1242 97.0571 18.6483 100.307 18.6483C103.738 18.6483 105.634 17.1242 105.634 14.5242C105.634 12.3724 104.37 11.5655 101.752 10.938L99.6754 10.4897C98.3211 10.2207 97.6891 9.8621 97.6891 8.96555C97.6891 7.88968 98.592 7.2621 100.307 7.2621C102.023 7.2621 103.106 7.97934 103.197 9.32417H105.273V9.23451C105.273 6.90348 103.377 5.46899 100.307 5.46899C97.2377 5.46899 95.5223 6.90348 95.5223 9.0552C95.5223 11.1173 96.6057 11.9242 99.1337 12.5518L101.481 13.1793C102.835 13.4483 103.467 13.8069 103.467 14.8828C103.467 16.0483 102.384 16.8552 100.488 16.8552C98.5017 16.8552 97.4183 15.9586 97.2377 14.2552H95.1611Z" fill="#FF8202"/>
<path d="M116.74 14.3448C116.379 15.9586 115.205 16.8551 113.49 16.8551C111.232 16.8551 109.878 15.4207 109.788 12.731H118.997C118.997 12.462 118.997 12.1034 118.997 11.8345C118.997 7.79997 116.83 5.55859 113.219 5.55859C109.698 5.55859 107.44 7.97928 107.44 12.2827C107.44 16.3172 109.698 18.7379 113.219 18.7379C116.198 18.7379 118.365 17.0345 118.816 14.3448H116.74ZM109.698 10.9379C109.878 8.60687 111.142 7.26204 113.219 7.26204C115.386 7.26204 116.65 8.51721 116.65 10.9379H109.698Z" fill="#FF8202"/>
<path d="M121.435 18.2896H123.601V1.25513H121.435V18.2896Z" fill="#FF8202"/>
<path d="M135.519 14.3448C135.158 15.9586 133.984 16.8551 132.269 16.8551C130.012 16.8551 128.657 15.4207 128.567 12.731H137.776C137.776 12.462 137.776 12.1034 137.776 11.8345C137.776 7.79997 135.609 5.55859 131.998 5.55859C128.477 5.55859 126.22 7.97928 126.22 12.2827C126.22 16.3172 128.477 18.7379 131.998 18.7379C134.977 18.7379 137.144 17.0345 137.596 14.3448H135.519ZM128.567 10.9379C128.748 8.60687 130.012 7.26204 132.088 7.26204C134.255 7.26204 135.519 8.51721 135.519 10.9379H128.567Z" fill="#FF8202"/>
<path d="M148.791 10.0414H150.958C150.867 7.2621 148.791 5.46899 145.54 5.46899C141.929 5.46899 139.672 7.97934 139.672 12.1035C139.672 16.2276 141.839 18.6483 145.27 18.6483C148.61 18.6483 150.687 16.8552 150.958 13.8069H148.881C148.61 15.6897 147.346 16.7655 145.36 16.7655C143.193 16.7655 141.839 15.0621 141.839 12.0138C141.839 8.96555 143.193 7.35175 145.45 7.35175C147.527 7.35175 148.61 8.33796 148.791 10.0414Z" fill="#FF8202"/>
<path d="M155.653 15.1517V7.531H157.91V5.91721H155.653V2.42065H153.486V5.91721H151.59V7.62066H153.486V15.9586C153.486 17.8413 154.208 18.5586 156.194 18.5586C156.646 18.5586 157.278 18.4689 157.91 18.3793V16.5862C157.368 16.6758 157.007 16.6758 156.736 16.6758C155.833 16.5862 155.653 16.2276 155.653 15.1517Z" fill="#FF8202"/>
<path d="M95.4316 23.6689C95.4316 24.2965 95.8831 24.6552 96.6956 24.6552C97.5082 24.6552 98.0499 24.2965 98.0499 23.7586C98.0499 23.2207 97.7791 23.0414 97.0568 22.9517L96.5151 22.862C96.1539 22.7724 95.9734 22.6827 95.9734 22.5034C95.9734 22.2345 96.1539 22.1448 96.6054 22.1448C97.0568 22.1448 97.3277 22.3241 97.3277 22.5931H97.8694C97.8694 22.0552 97.4179 21.6965 96.6054 21.6965C95.8831 21.6965 95.4316 22.0552 95.4316 22.5034C95.4316 22.9517 95.7025 23.131 96.3345 23.3103L96.9665 23.4896C97.3276 23.5793 97.4179 23.6689 97.4179 23.8483C97.4179 24.1172 97.1471 24.2965 96.6956 24.2965C96.1539 24.2965 95.8831 24.1172 95.8831 23.7586H95.4316V23.6689Z" fill="#FF0000"/>
<path d="M99.3144 23.8482V22.1448H99.8561V21.7861H99.3144V20.9792H98.7727V21.7861H98.3213V22.1448H98.7727V24.0275C98.7727 24.4758 98.9533 24.6551 99.495 24.6551C99.5853 24.6551 99.7659 24.6551 99.9464 24.6551V24.2068C99.8561 24.2068 99.7659 24.2068 99.6756 24.2068C99.3144 24.2068 99.3144 24.1172 99.3144 23.8482Z" fill="#FF0000"/>
<path d="M100.217 23.1311C100.217 24.1173 100.759 24.6552 101.752 24.6552C102.745 24.6552 103.287 24.1173 103.287 23.1311C103.287 22.1449 102.745 21.6069 101.752 21.6069C100.759 21.6966 100.217 22.2345 100.217 23.1311ZM100.759 23.1311C100.759 22.4138 101.12 22.0552 101.752 22.0552C102.384 22.0552 102.745 22.4138 102.745 23.1311C102.745 23.8483 102.384 24.2069 101.752 24.2069C101.12 24.2069 100.759 23.8483 100.759 23.1311Z" fill="#FF0000"/>
<path d="M105.995 22.6827H106.537C106.537 22.0552 105.995 21.6965 105.183 21.6965C104.28 21.6965 103.738 22.2345 103.738 23.2207C103.738 24.1172 104.28 24.7448 105.093 24.7448C105.905 24.7448 106.447 24.2965 106.537 23.6689H105.995C105.905 24.1172 105.634 24.2965 105.093 24.2965C104.551 24.2965 104.19 23.9379 104.19 23.2207C104.19 22.5034 104.551 22.1448 105.093 22.1448C105.725 22.0552 105.995 22.3241 105.995 22.6827Z" fill="#FF0000"/>
<path d="M107.079 24.5655H107.621V23.5793L108.163 23.131L109.065 24.5655H109.697L108.524 22.7724L109.697 21.7862H109.065L107.621 23.0414V20.7103H107.079V24.5655Z" fill="#FF0000"/>
<path d="M111.864 25.7311H112.406V24.2069C112.677 24.4759 112.948 24.6552 113.399 24.6552C114.212 24.6552 114.753 24.1173 114.753 23.1311C114.753 22.2345 114.212 21.6069 113.399 21.6069C112.948 21.6069 112.587 21.7862 112.406 22.0552V21.6966H111.864V25.7311ZM112.406 23.2207C112.406 22.5035 112.767 22.1449 113.309 22.1449C113.851 22.1449 114.302 22.5035 114.302 23.2207C114.302 23.938 113.941 24.2966 113.399 24.2966C112.767 24.2069 112.406 23.938 112.406 23.2207Z" fill="#FF0000"/>
<path d="M117.642 24.5655H118.184V22.7724C118.184 22.5034 118.184 22.2345 118.004 22.0552C117.823 21.7862 117.462 21.6965 117.01 21.6965C116.559 21.6965 116.198 21.8758 116.017 22.1448V20.7103H115.476V24.5655H116.017V22.8621C116.017 22.4138 116.378 22.0552 116.92 22.0552C117.462 22.0552 117.552 22.3241 117.552 22.7724V24.5655H117.642Z" fill="#FF0000"/>
<path d="M118.816 23.1311C118.816 24.1173 119.358 24.6552 120.351 24.6552C121.344 24.6552 121.886 24.1173 121.886 23.1311C121.886 22.1449 121.344 21.6069 120.351 21.6069C119.358 21.6966 118.816 22.2345 118.816 23.1311ZM119.358 23.1311C119.358 22.4138 119.719 22.0552 120.351 22.0552C120.983 22.0552 121.344 22.4138 121.344 23.1311C121.344 23.8483 120.983 24.2069 120.351 24.2069C119.719 24.2069 119.358 23.8483 119.358 23.1311Z" fill="#FF0000"/>
<path d="M123.149 23.8482V22.1448H123.691V21.7861H123.149V20.9792H122.608V21.7861H122.156V22.1448H122.608V24.0275C122.608 24.4758 122.788 24.6551 123.33 24.6551C123.42 24.6551 123.601 24.6551 123.781 24.6551V24.2068C123.691 24.2068 123.601 24.2068 123.511 24.2068C123.149 24.2068 123.149 24.1172 123.149 23.8482Z" fill="#FF0000"/>
<path d="M124.053 23.1311C124.053 24.1173 124.594 24.6552 125.588 24.6552C126.581 24.6552 127.122 24.1173 127.122 23.1311C127.122 22.1449 126.581 21.6069 125.588 21.6069C124.594 21.6966 124.053 22.2345 124.053 23.1311ZM124.594 23.1311C124.594 22.4138 124.956 22.0552 125.588 22.0552C126.22 22.0552 126.581 22.4138 126.581 23.1311C126.581 23.8483 126.22 24.2069 125.588 24.2069C124.956 24.2069 124.594 23.8483 124.594 23.1311Z" fill="#FF0000"/>
<path d="M127.483 23.6689C127.483 24.2965 127.935 24.6552 128.747 24.6552C129.56 24.6552 130.102 24.2965 130.102 23.7586C130.102 23.2207 129.741 23.0414 129.109 22.9517L128.567 22.862C128.206 22.7724 128.025 22.6827 128.025 22.5034C128.025 22.2345 128.206 22.1448 128.657 22.1448C129.109 22.1448 129.379 22.3241 129.379 22.5931H129.921C129.921 22.0552 129.47 21.6965 128.657 21.6965C127.935 21.6965 127.483 22.0552 127.483 22.5034C127.483 22.9517 127.754 23.131 128.386 23.3103L129.018 23.4896C129.379 23.5793 129.47 23.6689 129.47 23.8483C129.47 24.1172 129.199 24.2965 128.747 24.2965C128.206 24.2965 127.935 24.1172 127.935 23.7586H127.483V23.6689Z" fill="#FF0000"/>
<path d="M134.345 23.1311V23.5793C134.345 23.938 133.984 24.2966 133.352 24.2966C132.991 24.2966 132.81 24.1173 132.81 23.8483C132.81 23.5793 132.991 23.4 133.352 23.4C133.713 23.3104 134.074 23.3104 134.345 23.1311ZM134.345 24.2069C134.345 24.4759 134.526 24.6552 134.887 24.6552C134.977 24.6552 135.067 24.6552 135.158 24.6552V24.2069C135.067 24.2069 135.067 24.2069 134.977 24.2069C134.796 24.2069 134.796 24.1173 134.796 23.938V22.5035C134.796 21.8759 134.435 21.6069 133.532 21.6069C132.72 21.6069 132.268 21.9656 132.268 22.5035H132.81C132.81 22.1449 133.081 21.9656 133.532 21.9656C133.984 21.9656 134.255 22.1449 134.255 22.4138C134.255 22.5931 134.255 22.6828 134.074 22.6828C133.984 22.7725 133.623 22.7725 133.171 22.7725C132.449 22.8621 132.088 23.1311 132.088 23.669C132.088 24.2069 132.449 24.4759 133.081 24.4759C133.713 24.6552 134.074 24.4759 134.345 24.2069Z" fill="#FF0000"/>
<path d="M137.866 24.5655H138.408V22.7724C138.408 22.5034 138.408 22.2345 138.227 22.0552C138.047 21.7862 137.686 21.6965 137.234 21.6965C136.783 21.6965 136.421 21.8758 136.241 22.1448V21.6965H135.699V24.4758H136.241V22.8621C136.241 22.3241 136.602 21.9655 137.144 21.9655C137.685 21.9655 137.776 22.2345 137.776 22.6827V24.5655H137.866Z" fill="#FF0000"/>
<path d="M141.929 20.7103H141.387V22.1448C141.117 21.8758 140.755 21.6965 140.394 21.6965C139.582 21.6965 139.04 22.2345 139.04 23.2207C139.04 24.1172 139.582 24.7448 140.394 24.7448C140.846 24.7448 141.117 24.5655 141.387 24.2965V24.6552H141.929V20.7103ZM141.478 23.131C141.478 23.8483 141.117 24.2069 140.575 24.2069C140.033 24.2069 139.582 23.8483 139.582 23.131C139.582 22.4138 139.943 22.0552 140.485 22.0552C141.117 22.0552 141.478 22.4138 141.478 23.131Z" fill="#FF0000"/>
<path d="M148.339 24.5655H148.881V22.7724C148.881 22.5034 148.881 22.2345 148.791 22.0552C148.61 21.7862 148.339 21.6965 147.888 21.6965C147.436 21.6965 147.166 21.8758 146.895 22.1448C146.714 21.8758 146.443 21.6965 145.992 21.6965C145.54 21.6965 145.27 21.8758 144.999 22.1448V21.7862H144.457V24.5655H144.999V22.8621C144.999 22.3241 145.27 22.0552 145.811 22.0552C146.263 22.0552 146.353 22.3241 146.353 22.7724V24.4758H146.895V22.7724C146.895 22.2345 147.166 21.9655 147.707 21.9655C148.159 21.9655 148.249 22.2345 148.249 22.6827V24.5655H148.339Z" fill="#FF0000"/>
<path d="M149.513 23.1311C149.513 24.1173 150.054 24.6552 151.048 24.6552C152.041 24.6552 152.582 24.1173 152.582 23.1311C152.582 22.1449 152.041 21.6069 151.048 21.6069C150.054 21.6966 149.513 22.2345 149.513 23.1311ZM150.054 23.1311C150.054 22.4138 150.416 22.0552 151.048 22.0552C151.68 22.0552 152.041 22.4138 152.041 23.1311C152.041 23.8483 151.68 24.2069 151.048 24.2069C150.416 24.2069 150.054 23.8483 150.054 23.1311Z" fill="#FF0000"/>
<path d="M153.215 24.5656H153.757V22.9518C153.757 22.4138 154.028 22.1449 154.66 22.1449H154.75V21.6069C154.66 21.6069 154.66 21.6069 154.57 21.6069C154.118 21.6069 153.847 21.7862 153.667 22.1449V21.6069H153.125V24.5656H153.215Z" fill="#FF0000"/>
<path d="M157.368 23.6689C157.278 24.0276 157.007 24.2069 156.555 24.2069C156.014 24.2069 155.653 23.8483 155.653 23.3103H157.91C157.91 23.2207 157.91 23.131 157.91 23.131C157.91 22.2345 157.368 21.6965 156.465 21.6965C155.562 21.6965 155.021 22.2345 155.021 23.2207C155.021 24.1172 155.562 24.6552 156.465 24.6552C157.187 24.6552 157.729 24.2965 157.819 23.6689H157.368ZM155.653 22.9517C155.743 22.4138 156.014 22.1448 156.555 22.1448C157.097 22.1448 157.368 22.4138 157.368 22.9517H155.653Z" fill="#FF0000"/>
</svg>
