<svg width="17" height="17" viewBox="0 0 17 17" fill="none" xmlns="http://www.w3.org/2000/svg">
<path fill-rule="evenodd" clip-rule="evenodd" d="M4.81116 0C3.48044 0 2.32049 0.905665 1.99775 2.19665L0.186196 9.44286C0.128689 9.67289 0.0996094 9.9091 0.0996094 10.1462V13.15C0.0996094 14.7516 1.39798 16.05 2.99961 16.05H13.9996C15.6012 16.05 16.8996 14.7516 16.8996 13.15V10.1462C16.8996 9.9091 16.8705 9.67289 16.813 9.44286L15.0015 2.19665C14.6787 0.905662 13.5188 0 12.1881 0H4.81116ZM3.744 2.63321C3.86643 2.14353 4.30641 1.8 4.81116 1.8H12.1881C12.6928 1.8 13.1328 2.14353 13.2552 2.63321L15.0668 9.87942C15.0685 9.88627 15.0701 9.89313 15.0717 9.9H12.57C11.9013 9.9 11.2768 10.2342 10.9059 10.7906L10.5933 11.2594C10.2224 11.8158 9.59795 12.15 8.92924 12.15H8.06998C7.40127 12.15 6.77681 11.8158 6.40588 11.2594L6.09334 10.7906C5.72241 10.2342 5.09795 9.9 4.42924 9.9H1.92752C1.9291 9.89313 1.93074 9.88627 1.93245 9.87942L3.744 2.63321Z" fill="#FF7F00"/>
<circle cx="13.5503" cy="13.0566" r="1.66752" fill="#FF7F00"/>
</svg>
