<svg width="17" height="16" viewBox="0 0 17 16" fill="none" xmlns="http://www.w3.org/2000/svg">
<path fill-rule="evenodd" clip-rule="evenodd" d="M0.144531 0.9C0.144531 0.402944 0.547475 0 1.04453 0H2.71205C3.11791 0 3.47355 0.271639 3.58034 0.663194L4.09367 2.54541L16.1114 3.33699C16.5845 3.36815 16.9522 3.76095 16.9522 4.23505V9.23762C16.9522 9.7079 16.5902 10.0989 16.1213 10.135L5.28237 10.9687C4.85195 11.0018 4.45864 10.7247 4.34505 10.3082L2.52594 3.63809L2.02464 1.8H1.04453C0.547475 1.8 0.144531 1.39706 0.144531 0.9ZM6.92096 4.85086C6.8004 4.36864 6.31176 4.07546 5.82955 4.19601C5.34733 4.31656 5.05415 4.8052 5.1747 5.28742L6.00846 8.62247C6.12901 9.10468 6.61766 9.39787 7.09987 9.27731C7.58209 9.15676 7.87527 8.66812 7.75472 8.1859L6.92096 4.85086ZM9.67177 4.3863C10.1638 4.316 10.6197 4.65791 10.69 5.14997L11.1069 8.06814C11.1772 8.5602 10.8353 9.01608 10.3432 9.08637C9.85115 9.15667 9.39527 8.81476 9.32497 8.3227L8.90809 5.40453C8.8378 4.91247 9.17971 4.45659 9.67177 4.3863ZM14.4513 5.4859C14.4513 4.98884 14.0484 4.5859 13.5513 4.5859C13.0542 4.5859 12.6513 4.98884 12.6513 5.4859V7.98719C12.6513 8.48424 13.0542 8.88719 13.5513 8.88719C14.0484 8.88719 14.4513 8.48424 14.4513 7.98719V5.4859Z" fill="#FF7F00"/>
<circle cx="6.88139" cy="13.4065" r="1.66752" fill="#FF7F00"/>
<circle cx="13.5503" cy="13.4065" r="1.66752" fill="#FF7F00"/>
</svg>
